<?xml version="1.0" encoding="UTF-8" standalone="no"?>
<!-- Created with Inkscape (http://www.inkscape.org/) -->

<svg
   xmlns:dc="http://purl.org/dc/elements/1.1/"
   xmlns:cc="http://creativecommons.org/ns#"
   xmlns:rdf="http://www.w3.org/1999/02/22-rdf-syntax-ns#"
   xmlns:svg="http://www.w3.org/2000/svg"
   xmlns="http://www.w3.org/2000/svg"
   xmlns:sodipodi="http://sodipodi.sourceforge.net/DTD/sodipodi-0.dtd"
   xmlns:inkscape="http://www.inkscape.org/namespaces/inkscape"
   width="719.99994"
   height="586.35486"
   viewBox="0 0 190.49998 155.13972"
   version="1.1"
   id="svg8"
   inkscape:version="0.92.3 (2405546, 2018-03-11)"
   sodipodi:docname="servicio-a-empresas.svg">
  <defs
     id="defs2" />
  <sodipodi:namedview
     id="base"
     pagecolor="#ffffff"
     bordercolor="#666666"
     borderopacity="1.0"
     inkscape:pageopacity="0.0"
     inkscape:pageshadow="2"
     inkscape:zoom="0.7"
     inkscape:cx="-113.70951"
     inkscape:cy="289.67065"
     inkscape:document-units="mm"
     inkscape:current-layer="layer1"
     showgrid="false"
     fit-margin-top="0"
     fit-margin-left="0"
     fit-margin-right="0"
     fit-margin-bottom="0"
     units="px"
     inkscape:window-width="1920"
     inkscape:window-height="1017"
     inkscape:window-x="-8"
     inkscape:window-y="-8"
     inkscape:window-maximized="1" />
  <metadata
     id="metadata5">
    <rdf:RDF>
      <cc:Work
         rdf:about="">
        <dc:format>image/svg+xml</dc:format>
        <dc:type
           rdf:resource="http://purl.org/dc/dcmitype/StillImage" />
        <dc:title></dc:title>
      </cc:Work>
    </rdf:RDF>
  </metadata>
  <g
     inkscape:label="Capa 1"
     inkscape:groupmode="layer"
     id="layer1"
     transform="translate(-214.09296,373.57557)">
    <path
       style="fill:#082e3d;stroke-width:0.21170583;fill-opacity:1"
       d="m 243.90556,-218.74466 c -15.62085,-2.13139 -27.94083,-14.81746 -29.60146,-30.48111 -0.33626,-3.17164 -0.19003,-74.4349 0.15603,-76.00242 0.18203,-0.82508 0.16278,-1.56099 -0.088,-3.33684 -0.47603,-3.37243 -0.30565,-20.49002 0.22705,-22.80882 2.30255,-10.02351 9.12641,-17.6831 18.55298,-20.82523 4.00762,-1.33582 2.64114,-1.26739 26.90103,-1.34735 24.10571,-0.0795 24.14489,-0.0778 28.23433,1.10988 7.96084,2.31225 14.93786,8.66553 17.88351,16.28481 l 0.69747,1.80409 34.00335,0.068 c 33.77882,0.0675 34.01684,0.071 36.04657,0.5185 7.13262,1.57279 13.13246,4.90935 18.09577,10.06318 4.53482,4.70892 7.53072,10.42518 9.01435,17.19961 l 0.46363,2.11707 0.0775,36.41341 c 0.057,26.7444 0.0125,37.03176 -0.16928,38.74217 -1.49516,14.10316 -11.63228,25.92888 -25.40006,29.63106 -4.57494,1.23023 -1.16159,1.17407 -69.92346,1.15032 -50.90325,-0.0175 -63.52566,-0.0758 -65.17111,-0.30026 z m 130.25375,-11.63247 c 9.3222,-1.63261 16.87985,-9.1739 18.49903,-18.45897 0.27282,-1.56441 0.31761,-6.29529 0.31761,-33.54938 v -31.72815 h -83.62381 -83.6238 v 31.72815 c 0,34.78736 -0.0435,33.51107 1.26301,37.09091 1.26041,3.45357 3.06904,6.27994 5.61276,8.77115 3.18934,3.12345 7.48752,5.35649 11.82507,6.14354 1.22127,0.22154 13.84304,0.279 64.73645,0.29438 54.69085,0.0175 63.45875,-0.0225 64.99368,-0.29163 z m 17.9698,-95.66473 c 0,-0.52903 -0.78362,-2.56453 -1.65173,-4.29045 -3.44951,-6.85807 -10.32081,-11.55964 -18.05406,-12.35321 -1.39546,-0.14328 -14.93227,-0.22004 -38.74745,-0.22004 -20.13147,0 -36.60267,-0.0365 -36.60267,-0.0813 0,-0.0448 -0.18929,-1.49975 -0.42058,-3.23349 -0.49924,-3.74187 -0.8258,-4.93652 -1.93468,-7.07771 -2.1601,-4.1711 -5.84841,-7.07449 -10.46884,-8.24095 -1.67381,-0.42256 -2.16945,-0.43036 -23.71107,-0.37295 l -22.00149,0.0585 -1.69364,0.59441 c -2.48574,0.87244 -4.43425,2.10987 -6.36936,4.04495 -1.93508,1.93511 -3.17251,3.88362 -4.04494,6.36936 l -0.59441,1.69363 -0.066,9.31505 c -0.0633,8.9135 -0.0465,9.40032 0.39015,11.29254 0.25092,1.0876 0.40865,2.15938 0.35049,2.38169 -0.10377,0.3973 1.30989,0.40423 82.75732,0.40423 69.22336,0 82.86301,-0.0468 82.86301,-0.28443 z"
       id="path118"
       inkscape:connector-curvature="0" />
  </g>
</svg>
