<?xml version="1.0" encoding="UTF-8" standalone="no"?>
<!-- Created with Inkscape (http://www.inkscape.org/) -->

<svg
   xmlns:dc="http://purl.org/dc/elements/1.1/"
   xmlns:cc="http://creativecommons.org/ns#"
   xmlns:rdf="http://www.w3.org/1999/02/22-rdf-syntax-ns#"
   xmlns:svg="http://www.w3.org/2000/svg"
   xmlns="http://www.w3.org/2000/svg"
   xmlns:sodipodi="http://sodipodi.sourceforge.net/DTD/sodipodi-0.dtd"
   xmlns:inkscape="http://www.inkscape.org/namespaces/inkscape"
   width="616.20697"
   height="720.00018"
   viewBox="0 0 163.03809 190.50005"
   version="1.1"
   id="svg8"
   inkscape:version="0.92.3 (2405546, 2018-03-11)"
   sodipodi:docname="laboratorio.svg">
  <defs
     id="defs2" />
  <sodipodi:namedview
     id="base"
     pagecolor="#ffffff"
     bordercolor="#666666"
     borderopacity="1.0"
     inkscape:pageopacity="0.0"
     inkscape:pageshadow="2"
     inkscape:zoom="0.7"
     inkscape:cx="-197.2468"
     inkscape:cy="308.94887"
     inkscape:document-units="mm"
     inkscape:current-layer="layer1"
     showgrid="false"
     fit-margin-top="0"
     fit-margin-left="0"
     fit-margin-right="0"
     fit-margin-bottom="0"
     units="px"
     inkscape:window-width="1920"
     inkscape:window-height="1017"
     inkscape:window-x="-8"
     inkscape:window-y="-8"
     inkscape:window-maximized="1" />
  <metadata
     id="metadata5">
    <rdf:RDF>
      <cc:Work
         rdf:about="">
        <dc:format>image/svg+xml</dc:format>
        <dc:type
           rdf:resource="http://purl.org/dc/dcmitype/StillImage" />
        <dc:title></dc:title>
      </cc:Work>
    </rdf:RDF>
  </metadata>
  <g
     inkscape:label="Capa 1"
     inkscape:groupmode="layer"
     id="layer1"
     transform="translate(-96.34435,223.91853)">
    <path
       style="fill:#082e3d;stroke-width:0.18132019;fill-opacity:1"
       d="m 107.60221,-33.558921 c -2.59597,-0.374191 -5.18559,-1.679444 -7.23347,-3.645932 -5.365853,-5.15256 -5.365853,-13.795122 0,-18.947677 1.81246,-1.740415 3.43348,-2.657672 6.09904,-3.451141 0.88303,-0.262861 2.69963,-0.311113 14.90955,-0.396025 l 13.904,-0.09669 -2.48083,-1.663626 c -6.7856,-4.550376 -13.0888,-10.660591 -17.87835,-17.330975 -5.8923,-8.206179 -10.19243,-18.503421 -11.88428,-28.458423 -1.32071,-7.77137 -1.28323,-16.47847 0.10365,-24.07779 3.04299,-16.67351 11.81926,-31.4403 24.88796,-41.87596 l 1.60357,-1.2805 0.10172,-1.85741 c 0.15312,-2.79268 1.18093,-5.96909 2.69736,-8.33572 0.30216,-0.47156 0.5216,-0.92639 0.48764,-1.01072 -0.0341,-0.0844 -2.77474,-2.67036 -6.09063,-5.74669 -3.31591,-3.07633 -6.0289,-5.6452 -6.0289,-5.70859 0,-0.097 7.22324,-7.19338 23.85788,-23.43896 l 3.10952,-3.03678 5.74898,6.70852 c 3.16193,3.6897 5.80331,6.70853 5.8697,6.70853 0.0664,0 1.1463,-1.02329 2.39977,-2.27399 l 2.27904,-2.27397 28.09,32.08727 c 15.44949,17.64801 28.1149,32.16204 28.14536,32.2534 0.0608,0.18257 -26.53738,25.88107 -26.78719,25.88107 -0.0852,0 -9.02238,-7.37198 -19.86052,-16.38218 -17.28126,-14.36666 -19.76489,-16.37107 -20.18693,-16.29194 -0.2647,0.0496 -1.17483,0.23023 -2.02249,0.40132 -2.28084,0.46037 -6.23516,0.30394 -8.34073,-0.32995 -4.07725,-1.22748 -7.31503,-3.42949 -9.65528,-6.56655 -0.96718,-1.29649 -1.17089,-1.48119 -1.46195,-1.32542 -0.69259,0.37066 -6.09075,5.93319 -7.62492,7.85709 -6.29439,7.89342 -10.4694,16.87362 -12.33994,26.54249 -1.47882,7.64415 -1.47747,15.73201 0.004,23.22882 3.10618,15.719825 12.35955,29.604874 25.7222,38.597239 1.19284,0.802716 2.19204,1.436255 2.22043,1.407862 0.0283,-0.0284 0.1315,-1.029763 0.22919,-2.225264 0.4819,-5.898118 2.42466,-10.710762 6.11226,-15.14136 3.6713,-4.411053 8.6633,-7.351638 14.77819,-8.705273 2.65979,-0.58879 7.35593,-0.584905 10.11884,0.0084 2.63545,0.565908 4.48384,1.205541 6.71057,2.322204 l 1.90386,0.954745 2.2665,-2.239678 c 27.25549,-26.932935 53.68527,-52.787235 54.28437,-53.102355 1.55299,-0.81685 3.74267,-0.43318 5.08169,0.89039 1.28465,1.26983 1.61181,3.51623 0.74253,5.09864 -0.33441,0.60873 -8.48958,8.75124 -28.08529,28.04169 l -27.61403,27.183871 1.1777,1.736702 c 1.33814,1.973294 2.56691,4.394602 3.15182,6.210638 0.21923,0.680706 0.50316,1.237649 0.63095,1.237649 0.44761,0 5.2435,-2.538071 7.00131,-3.705224 4.55047,-3.021418 8.37076,-6.805949 11.27692,-11.171349 1.91517,-2.876782 1.99889,-2.342039 -0.80688,-5.153602 l -2.41827,-2.423261 0.46852,-0.423105 c 0.25767,-0.232708 7.94797,-7.644179 17.08952,-16.469939 9.14158,-8.82576 16.69291,-16.04684 16.78076,-16.04684 0.2911,0 18.67944,17.37144 18.53338,17.50846 -0.0788,0.0739 -8.00916,7.48314 -17.62306,16.464938 l -17.47979,16.330535 -3.06579,-2.985575 c -1.6862,-1.642063 -3.12769,-2.985571 -3.20333,-2.985571 -0.0756,0 -0.61419,0.701688 -1.19674,1.559306 -2.30358,3.391226 -5.73741,7.179509 -8.97882,9.905619 -3.67657,3.092093 -9.40201,6.472399 -13.8624,8.184376 -1.68099,0.645201 -1.87478,0.832441 -1.90136,1.837143 -0.015,0.547903 -0.7802,4.085617 -1.0089,4.661273 -0.11543,0.290518 1.06477,0.31315 19.15872,0.367424 19.21411,0.05763 19.28666,0.05924 20.69526,0.455734 4.87522,1.372306 8.35254,4.85844 9.56161,9.585824 0.45239,1.768819 0.48113,4.714776 0.0625,6.404603 -1.00609,4.061118 -4.01991,7.614288 -7.71663,9.097595 -2.63117,1.055736 2.8333,0.969719 -63.42866,0.998584 -35.46223,0.01542 -61.12522,-0.04182 -61.79197,-0.137939 z m 121.90701,-9.106586 c 1.61214,-0.750706 2.49458,-2.16725 2.50002,-4.013182 0.004,-1.656022 -0.90548,-3.093607 -2.50743,-3.959603 l -0.72526,-0.392082 h -60.1983 -60.19832 l -0.72527,0.391364 c -3.58583,1.934928 -3.07978,7.048584 0.81476,8.233257 0.24997,0.07603 27.38052,0.14445 60.29013,0.152052 l 59.83567,0.01371 0.914,-0.425626 z m -47.71009,-18.354575 c 0.26416,-0.557898 0.69684,-1.720614 0.96154,-2.583813 0.43239,-1.409995 0.48237,-1.864213 0.49209,-4.470577 0.0129,-3.207166 -0.18481,-4.27852 -1.25089,-6.809256 -1.78413,-4.235435 -5.57654,-7.871103 -9.80738,-9.401992 -4.45574,-1.61228 -9.19614,-1.427616 -13.26353,0.516685 -3.03181,1.449276 -5.35681,3.442266 -7.08091,6.069769 -3.24349,4.943043 -3.75851,10.685845 -1.46079,16.288312 l 0.57634,1.40523 h 15.17663 15.17663 z m 53.66685,-42.075078 c 6.04411,-5.64877 10.98839,-10.32003 10.98727,-10.38058 -0.004,-0.18339 -5.46808,-5.19169 -5.59324,-5.12605 -0.064,0.0336 -4.95353,4.72142 -10.86563,10.41747 l -10.74931,10.356454 2.4968,2.501594 c 1.37325,1.375875 2.55037,2.501593 2.61581,2.501593 0.0655,0 5.06419,-4.621718 11.1083,-10.270481 z m -36.33017,-39.32059 c 3.20271,-3.09151 6.56394,-6.31613 7.46938,-7.16582 l 1.64625,-1.5449 -21.89549,-25.0185 c -12.04254,-13.76019 -22.09084,-25.22056 -22.32956,-25.46749 l -0.43403,-0.44898 -1.37372,1.35558 c -0.75555,0.74556 -2.84652,2.88613 -4.6466,4.75682 l -3.27289,3.40128 0.61202,0.21266 c 2.74204,0.95272 6.17173,3.64357 8.18261,6.4198 4.64283,6.40994 4.51247,15.3815 -0.31674,21.79842 -0.54906,0.72959 -0.99354,1.38234 -0.98774,1.45056 0.0193,0.23531 31.08634,25.94774 31.30461,25.90967 0.12036,-0.021 2.83918,-2.56758 6.0419,-5.65909 z m -48.41761,-23.59517 c 3.17014,-0.892 5.9656,-3.79934 6.69444,-6.96233 0.28299,-1.22804 0.23429,-3.60698 -0.0966,-4.72171 -1.25816,-4.23812 -4.94542,-7.05907 -9.22694,-7.05907 -3.27049,0 -6.29451,1.65358 -8.10018,4.42928 -2.39672,3.6843 -1.83625,8.72362 1.32144,11.88132 1.18746,1.18745 3.06319,2.23748 4.51224,2.52594 0.5485,0.10918 1.16046,0.23476 1.3599,0.27905 0.58144,0.12912 2.45425,-0.0682 3.53575,-0.37248 z m -9.56655,-26.27625 c 0.77861,-0.31666 1.27753,-0.65773 1.58847,-1.08589 0.2493,-0.34332 2.67993,-2.90299 5.40136,-5.68816 l 4.94805,-5.06395 -2.91674,-3.36947 c -1.60422,-1.85322 -2.96125,-3.3695 -3.01565,-3.3695 -0.15719,0 -13.48304,13.10183 -13.48304,13.2563 0,0.1739 6.01933,5.78233 6.20599,5.78233 0.075,0 0.64722,-0.20774 1.27156,-0.46166 z"
       id="path86"
       inkscape:connector-curvature="0" />
  </g>
</svg>
