<?xml version="1.0" encoding="UTF-8" standalone="no"?>
<!-- Created with Inkscape (http://www.inkscape.org/) -->

<svg
   xmlns:dc="http://purl.org/dc/elements/1.1/"
   xmlns:cc="http://creativecommons.org/ns#"
   xmlns:rdf="http://www.w3.org/1999/02/22-rdf-syntax-ns#"
   xmlns:svg="http://www.w3.org/2000/svg"
   xmlns="http://www.w3.org/2000/svg"
   xmlns:sodipodi="http://sodipodi.sourceforge.net/DTD/sodipodi-0.dtd"
   xmlns:inkscape="http://www.inkscape.org/namespaces/inkscape"
   width="614.12573"
   height="720"
   viewBox="0 0 162.48743 190.5"
   version="1.1"
   id="svg8"
   inkscape:version="0.92.3 (2405546, 2018-03-11)"
   sodipodi:docname="imagenologia.svg">
  <defs
     id="defs2" />
  <sodipodi:namedview
     id="base"
     pagecolor="#ffffff"
     bordercolor="#666666"
     borderopacity="1.0"
     inkscape:pageopacity="0.0"
     inkscape:pageshadow="2"
     inkscape:zoom="0.7"
     inkscape:cx="-142.63618"
     inkscape:cy="176.62093"
     inkscape:document-units="mm"
     inkscape:current-layer="layer1"
     showgrid="false"
     fit-margin-top="0"
     fit-margin-left="0"
     fit-margin-right="0"
     fit-margin-bottom="0"
     units="px"
     inkscape:window-width="1920"
     inkscape:window-height="1017"
     inkscape:window-x="-8"
     inkscape:window-y="-8"
     inkscape:window-maximized="1" />
  <metadata
     id="metadata5">
    <rdf:RDF>
      <cc:Work
         rdf:about="">
        <dc:format>image/svg+xml</dc:format>
        <dc:type
           rdf:resource="http://purl.org/dc/dcmitype/StillImage" />
        <dc:title></dc:title>
      </cc:Work>
    </rdf:RDF>
  </metadata>
  <g
     inkscape:label="Capa 1"
     inkscape:groupmode="layer"
     id="layer1"
     transform="translate(-53.547074,150.45106)">
    <path
       style="fill:#082e3d;stroke-width:0.18068527;fill-opacity:1"
       d="m 72.093007,40.018359 c -0.149172,-0.02977 -0.880841,-0.153248 -1.626168,-0.274424 -2.553381,-0.415071 -5.659831,-1.691305 -8.026545,-3.297579 -1.418543,-0.962745 -3.708601,-3.167249 -4.816208,-4.636293 -1.702184,-2.257603 -3.22169,-5.714701 -3.816073,-8.682128 -0.347919,-1.736962 -0.347919,-154.917175 0,-156.654135 0.594383,-2.96742 2.113889,-6.42452 3.816073,-8.68212 1.107607,-1.46904 3.397665,-3.67355 4.816208,-4.63629 2.264791,-1.53711 5.261399,-2.79226 7.936188,-3.32415 1.892821,-0.3764 126.935778,-0.3764 128.828598,0 2.67482,0.53189 5.6714,1.78704 7.93621,3.32415 1.41853,0.96274 3.70858,3.16725 4.81621,4.63629 1.70219,2.2576 3.22169,5.7147 3.81608,8.68212 0.34791,1.73696 0.34791,154.917173 0,156.654135 -0.37993,1.896724 -1.10422,3.944784 -2.04479,5.781931 -2.78997,5.44943 -7.65142,9.185262 -14.049,10.796106 -1.10556,0.278365 -6.0359,0.304004 -64.25661,0.333998 -34.68252,0.01793 -63.181108,0.0081 -63.330173,-0.02162 z M 199.15026,29.779855 c 3.15035,-1.263178 5.35323,-3.466055 6.61641,-6.616415 l 0.48514,-1.209958 v -77.152614 -77.152608 l -0.48514,-1.20996 c -1.26318,-3.15036 -3.46606,-5.35324 -6.61641,-6.61642 l -1.20996,-0.48515 H 134.79079 71.641286 l -1.209958,0.48515 c -3.150369,1.26318 -5.353228,3.46606 -6.61641,6.61642 l -0.485161,1.20996 -0.0461,76.692411 c -0.04119,68.362788 -0.01707,76.809666 0.230331,77.77196 0.783825,3.059572 2.970359,5.762683 5.780406,7.146063 2.361763,1.162694 -3.033464,1.077483 65.857866,1.040243 l 62.78815,-0.03393 z M 133.7055,12.490122 C 132.42766,12.071076 131.34696,11.15325 130.70042,9.9379118 130.39167,9.3575045 130.35963,8.7231967 130.311,2.2225069 l -0.0529,-7.0830008 -6.09029,-0.054056 c -5.85626,-0.051986 -6.11853,-0.069187 -6.82536,-0.4475204 -1.7203,-0.9208184 -2.70411,-2.6838849 -2.574,-4.6127094 0.0898,-1.3323843 0.51325,-2.3043543 1.38216,-3.1732673 1.27767,-1.277673 1.40522,-1.298145 8.11539,-1.302577 l 6.00777,-0.0041 v -3.332188 -3.33219 l -14.86136,-0.06295 -14.86136,-0.06296 -1.764965,-0.480018 c -4.896194,-1.331616 -8.672381,-4.470219 -10.725962,-8.914903 -1.885948,-4.081868 -1.832703,-9.171712 0.138502,-13.24718 l 0.733504,-1.516506 -0.730132,-1.555143 c -0.898639,-1.914074 -1.236656,-3.093408 -1.45478,-5.075536 -0.341346,-3.101997 0.251032,-6.043792 1.826088,-9.068391 l 0.910099,-1.747665 -0.394399,-0.553885 c -0.703349,-0.987755 -1.631076,-3.21215 -2.01871,-4.840254 -0.744708,-3.127737 -0.391454,-7.031674 0.892514,-9.863408 1.573072,-3.469298 4.408963,-6.364199 7.822549,-7.985304 2.402801,-1.141087 3.540158,-1.390883 6.788312,-1.490903 2.74773,-0.08462 2.97625,-0.06584 3.74872,0.308122 2.60249,1.259838 3.25931,4.586593 1.33681,6.770679 -0.98038,1.113756 -1.79423,1.384976 -4.61217,1.53702 -2.1819,0.117737 -2.48183,0.17747 -3.562739,0.709598 -2.139242,1.053144 -3.532518,2.817007 -4.001375,5.065668 -0.835939,4.009179 2.024557,7.901775 6.256114,8.51341 0.63847,0.09228 7.31997,0.169425 14.84776,0.171431 l 13.68691,0.0036 0.001,-10.61526 c 7.3e-4,-7.192769 0.0653,-10.847158 0.2006,-11.334522 0.53457,-1.925538 2.0784,-3.157087 4.14278,-3.304793 1.09165,-0.07811 1.36901,-0.02885 2.24136,0.397948 0.54756,0.267895 1.2389,0.782268 1.53628,1.143051 1.10189,1.336795 1.09284,1.229056 1.09284,12.994988 l -8e-5,10.718588 13.68691,-0.0036 c 7.52782,-0.002 14.19965,-0.07777 14.82632,-0.1684 4.1193,-0.595653 7.13704,-4.497866 6.38554,-8.257048 -0.69133,-3.458139 -3.17627,-5.630885 -6.91554,-6.046682 -2.74442,-0.305176 -4.18089,-1.353149 -4.67438,-3.410189 -0.44685,-1.862779 0.4625,-3.857694 2.16778,-4.755519 0.9713,-0.51139 1.04075,-0.521023 3.07164,-0.426099 2.39083,0.11174 3.65367,0.416263 5.71308,1.377622 3.67407,1.715118 6.24122,4.247744 7.93975,7.832991 1.03101,2.176249 1.38536,3.848844 1.38536,6.539197 0,2.955241 -0.37357,4.494065 -1.74967,7.207154 l -0.99781,1.967283 0.61304,1.014024 c 1.51035,2.498263 2.18779,5.092817 2.15185,8.241438 -0.0294,2.573607 -0.42733,4.301177 -1.50245,6.522364 l -0.71765,1.48268 0.72516,1.547448 c 1.14258,2.438236 1.47753,3.959165 1.47753,6.709182 0,2.804938 -0.35857,4.394091 -1.5493,6.86604 -1.73746,3.607048 -4.94997,6.544918 -8.70032,7.956544 -2.84011,1.069022 -2.33589,1.038541 -18.47548,1.116891 l -14.86136,0.07215 v 3.33219 3.33219 l 6.00779,0.0041 c 5.42395,0.0036 6.07802,0.03598 6.73052,0.333435 1.81177,0.825903 2.80062,2.37022 2.80062,4.3738253 0,0.6723733 -0.12185,1.4990042 -0.27512,1.8657433 -0.37074,0.887275 -1.43515,2.0352361 -2.3325,2.515551 -0.70687,0.3783677 -0.96891,0.39553 -6.83319,0.4475567 l -6.09812,0.054099 -0.004,6.9022828 c -0.004,6.5498804 -0.0228,6.9437949 -0.37159,7.7153665 -0.4534,1.0027714 -1.29534,1.9026224 -2.2313,2.3847854 -0.77474,0.399102 -2.45814,0.583599 -3.17624,0.34811 z m -3.43185,-46.272153 v -3.96918 l -15.13238,-0.05427 c -14.81369,-0.05313 -15.159043,-0.06233 -16.397192,-0.436928 -0.695646,-0.210458 -1.648106,-0.530385 -2.1166,-0.710941 -0.468473,-0.180564 -0.897807,-0.282268 -0.95404,-0.226022 -0.257989,0.257972 -0.422057,2.211179 -0.266183,3.168811 0.481341,2.957484 3.056597,5.50053 6.085965,6.009851 0.47551,0.07995 7.14564,0.154921 14.82249,0.16661 l 13.95794,0.02126 z m 39.22774,3.469098 c 2.24364,-0.907703 3.75111,-2.356266 4.509,-4.332871 0.42129,-1.098715 0.55207,-2.865054 0.29991,-4.050944 l -0.14085,-0.662717 -1.12389,0.458545 c -0.61814,0.252197 -1.85565,0.610334 -2.75004,0.795857 -1.50875,0.312957 -2.6797,0.337484 -16.21652,0.339686 l -14.59034,0.0024 v 3.982159 3.982159 l 14.50001,-0.05225 14.49999,-0.05225 z m -39.22774,-20.80945 v -4.686485 l -14.86136,-0.06887 c -14.54387,-0.0674 -14.89317,-0.07721 -16.350299,-0.459899 -0.81891,-0.215072 -1.779671,-0.512526 -2.135059,-0.661013 l -0.646135,-0.269976 -0.359422,0.812525 c -1.713878,3.874487 0.359913,8.219589 4.627195,9.695184 0.8293,0.286767 2.12249,0.31371 15.31544,0.319111 l 14.40964,0.006 z m 39.06392,4.313027 c 3.51289,-1.183408 5.68687,-4.638457 5.02749,-7.990059 -0.12058,-0.612463 -0.37206,-1.413406 -0.559,-1.779874 l -0.33994,-0.666304 -0.92839,0.352765 c -2.47946,0.942114 -2.27578,0.930806 -18.18776,1.009997 l -14.86137,0.07397 v 4.686485 4.686486 h 14.37019 c 14.04722,0 14.3951,-0.0083 15.47878,-0.373459 z m -92.004697,-47.89427 c -3.37195,-0.994702 -3.307779,-5.713624 0.09027,-6.641844 0.934897,-0.25537 8.622017,-0.26173 9.536085,-0.008 0.849256,0.23584 1.91271,1.15062 2.235383,1.92287 0.292454,0.699978 0.317487,2.004288 0.05186,2.707145 -0.238291,0.630701 -0.988718,1.438221 -1.705,1.834745 -0.459105,0.254139 -1.233455,0.305536 -5.059195,0.335791 -2.689771,0.02134 -4.772972,-0.03974 -5.14953,-0.150836 z m -0.05101,-12.637624 c -1.619851,-0.38648 -2.833159,-1.54372 -3.299178,-3.14676 -0.679704,-2.33815 0.706615,-4.85512 3.025376,-5.49278 0.579701,-0.15941 5.425765,-0.20034 19.116111,-0.16142 l 18.339568,0.0521 0.85248,0.50112 c 2.59463,1.52521 3.00666,5.0417 0.83468,7.12367 -1.36777,1.3111 0.001,1.22548 -20.117064,1.25793 -10.233438,0.0164 -18.364894,-0.0416 -18.751973,-0.13391 z m -0.50742,-15.62453 c -1.071584,-0.33009 -2.37207,-1.48192 -2.896626,-2.56551 -0.877619,-1.8129 -0.391177,-4.1814 1.143545,-5.56792 1.475843,-1.33332 0.423508,-1.25253 16.314664,-1.25253 h 14.274124 l 0.92506,0.488 c 3.06159,1.61509 3.53792,5.76607 0.91892,8.00785 -1.39819,1.1968 -1.05392,1.17218 -16.196083,1.15822 -11.230564,-0.0104 -13.801339,-0.0579 -14.483604,-0.26811 z"
       id="path73"
       inkscape:connector-curvature="0" />
  </g>
</svg>
