<?xml version="1.0" encoding="UTF-8" standalone="no"?>
<!-- Created with Inkscape (http://www.inkscape.org/) -->

<svg
   xmlns:dc="http://purl.org/dc/elements/1.1/"
   xmlns:cc="http://creativecommons.org/ns#"
   xmlns:rdf="http://www.w3.org/1999/02/22-rdf-syntax-ns#"
   xmlns:svg="http://www.w3.org/2000/svg"
   xmlns="http://www.w3.org/2000/svg"
   xmlns:sodipodi="http://sodipodi.sourceforge.net/DTD/sodipodi-0.dtd"
   xmlns:inkscape="http://www.inkscape.org/namespaces/inkscape"
   width="720"
   height="720"
   viewBox="0 0 190.5 190.5"
   version="1.1"
   id="svg8"
   inkscape:version="0.92.3 (2405546, 2018-03-11)"
   sodipodi:docname="atencion-medica.svg">
  <defs
     id="defs2" />
  <sodipodi:namedview
     id="base"
     pagecolor="#ffffff"
     bordercolor="#666666"
     borderopacity="1.0"
     inkscape:pageopacity="0.0"
     inkscape:pageshadow="2"
     inkscape:zoom="0.7"
     inkscape:cx="14.394941"
     inkscape:cy="294.95522"
     inkscape:document-units="mm"
     inkscape:current-layer="layer1"
     showgrid="false"
     fit-margin-top="0"
     fit-margin-left="0"
     fit-margin-right="0"
     fit-margin-bottom="0"
     units="px"
     inkscape:window-width="1920"
     inkscape:window-height="1017"
     inkscape:window-x="-8"
     inkscape:window-y="-8"
     inkscape:window-maximized="1" />
  <metadata
     id="metadata5">
    <rdf:RDF>
      <cc:Work
         rdf:about="">
        <dc:format>image/svg+xml</dc:format>
        <dc:type
           rdf:resource="http://purl.org/dc/dcmitype/StillImage" />
        <dc:title></dc:title>
      </cc:Work>
    </rdf:RDF>
  </metadata>
  <g
     inkscape:label="Capa 1"
     inkscape:groupmode="layer"
     id="layer1"
     transform="translate(-11.999257,58.66558)">
    <path
       style="fill:#082e3d;stroke-width:0.20149516;fill-opacity:1"
       d="M 108.59675,131.63246 C 83.238579,128.97512 66.377859,115.4238 63.082249,95.051469 c -0.1704,-1.052814 -0.33402,-2.173778 -0.36374,-2.491033 -0.0514,-0.549191 -0.17468,-0.617279 -2.57278,-1.421064 -3.09637,-1.037869 -6.05214,-2.501885 -8.96652,-4.441181 C 35.06213,75.973514 22.70597,51.393544 18.356864,21.404986 16.964191,11.802108 16.264273,-1.0597307 16.810785,-7.0058307 c 0.76772,-8.3526233 3.061267,-15.9783093 6.750199,-22.4432393 1.971265,-3.454691 3.424434,-5.348107 6.388031,-8.32323 l 2.747958,-2.758643 0.08877,-3.588457 c 0.08139,-3.295121 0.136128,-3.728061 0.668932,-5.296321 1.374062,-4.04456 4.480832,-7.13074 8.659207,-8.60181 1.550696,-0.54594 1.751176,-0.56667 5.438437,-0.56228 3.6253,0.004 3.91533,0.0337 5.46667,0.55316 4.06233,1.36035 7.28534,4.59993 8.76247,8.80758 0.43899,1.25049 0.46312,1.63322 0.53357,8.4628 0.0847,8.226027 -0.0167,9.087238 -1.38973,11.888216 -1.18729,2.420584 -3.59811,4.831332 -6.01841,6.018203 -2.27258,1.11445 -3.89596,1.430118 -7.35457,1.430118 -3.444539,0 -5.053779,-0.313621 -7.287782,-1.420291 -1.737681,-0.860814 -3.99196,-2.739581 -4.91737,-4.098279 -0.268972,-0.394914 -0.558864,-0.718647 -0.644229,-0.719404 -0.251623,-0.0022 -1.831758,2.561671 -2.917428,4.733759 -1.993422,3.98826 -3.436215,8.686845 -4.207386,13.7016703 -0.688137,4.474946 -0.455149,14.605537 0.542157,23.5749347 2.503474,22.515078 10.26364,43.520434 20.652528,55.902658 2.04771,2.440591 5.7227,5.917854 7.86029,7.437368 3.39592,2.414011 7.56878,4.158556 11.15618,4.66407 3.90234,0.549892 9.30827,-1.26981 14.36484,-4.835363 2.27448,-1.603814 6.40688,-5.648234 8.54391,-8.36205 12.585411,-15.982047 20.614741,-43.334037 20.625521,-70.2611167 0.002,-5.740856 -0.26773,-8.308206 -1.29567,-12.3189263 -1.26892,-4.950976 -3.18423,-9.097737 -5.80599,-12.570233 l -0.82436,-1.091848 -1.08733,1.220656 c -1.40624,1.578685 -3.755021,3.112924 -5.794541,3.785043 -1.40351,0.462512 -2.03517,0.542495 -4.88429,0.618448 -3.9795,0.106094 -5.48436,-0.171422 -8.14091,-1.501306 -1.39203,-0.696846 -2.15508,-1.250409 -3.26174,-2.366252 -3.60452,-3.634376 -4.29918,-6.400263 -4.10306,-16.336803 0.11757,-5.952772 0.26253,-6.938512 1.36395,-9.269662 1.78944,-3.78737 5.4616,-6.63115 9.64359,-7.46815 2.17712,-0.43574 7.17061,-0.31323 8.87871,0.21783 3.66742,1.14024 6.732611,3.72256 8.367961,7.04971 1.18351,2.40788 1.3481,3.34835 1.45357,8.305966 l 0.0952,4.47756 2.66323,2.675517 c 2.00904,2.01826 3.076,3.294246 4.3434,5.194206 3.94691,5.916973 6.53943,13.006562 7.69979,21.0562443 0.34039,2.361159 0.33391,14.513021 -0.01,19.041291 -1.85249,24.3852477 -7.89101,44.8577667 -17.69939,60.0065277 -2.90029,4.479468 -5.445151,7.606143 -9.060431,11.131991 -5.81684,5.672932 -11.77888,9.176223 -18.50659,10.874494 -2.6223,0.661949 -2.54629,0.520762 -1.92421,3.573311 2.0741,10.177803 8.34349,18.109053 17.78601,22.500663 5.88055,2.73497 12.235311,3.90511 19.999861,3.68266 8.59923,-0.24637 16.76295,-2.19605 24.23668,-5.78827 3.61011,-1.73519 5.77207,-3.03827 8.71228,-5.25113 8.50406,-6.40038 14.24593,-15.401841 16.89077,-26.479278 1.59944,-6.698998 1.8913,-11.9539 1.8067,-32.526736 l -0.0593,-14.392171 -2.41794,-0.82949 c -9.86171,-3.383136 -16.82305,-11.301494 -18.95945,-21.565938 -0.55294,-2.656495 -0.51895,-8.3325807 0.0657,-10.9814887 1.24182,-5.625925 3.85826,-10.449543 7.81355,-14.4048343 4.02718,-4.027184 9.02406,-6.694467 14.80782,-7.904211 2.45433,-0.513361 8.27253,-0.500779 10.78,0.02332 11.49534,2.402694 20.0377,10.8865313 22.50262,22.3485183 0.63202,2.938906 0.63202,8.2192567 0,11.1581607 -2.43289,11.313062 -10.85799,19.781444 -22.10451,22.218097 -1.09836,0.237963 -2.03631,0.471953 -2.08431,0.519969 -0.0481,0.04803 0.0295,7.999939 0.17206,17.670938 0.28211,19.121105 0.23927,20.689814 -0.72498,26.550175 -2.11124,12.831568 -7.47367,23.737679 -15.98747,32.515329 -9.08325,9.36474 -20.99807,15.32763 -34.27223,17.15187 -3.2351,0.44459 -10.51693,0.55669 -13.80172,0.21247 z M 173.14226,28.85634 c 4.20298,-0.797295 7.6833,-2.699732 10.73523,-5.868195 1.86613,-1.937393 2.59118,-2.985335 3.71926,-5.375659 1.42856,-3.026977 1.79229,-4.731338 1.79229,-8.3979577 0,-3.676278 -0.36333,-5.370213 -1.80883,-8.43287995 -3.37275,-7.14607505 -10.24392,-11.50984735 -18.12334,-11.50984735 -9.18687,0 -17.00834,6.0498893 -19.49242,15.0773403 -0.61417,2.231963 -0.61417,7.4988117 0,9.7307747 2.0588,7.481893 7.95958,13.131241 15.34263,14.688898 2.17146,0.458133 5.67517,0.497272 7.83518,0.08753 z m -5.29736,-9.987595 c -3.55264,-0.522266 -6.93997,-3.576793 -7.87947,-7.105341 -0.35415,-1.330085 -0.35415,-3.7676657 0,-5.0977507 0.96767,-3.634383 4.33359,-6.59753095 8.08097,-7.11404495 3.78275,-0.521387 7.59146,1.184204 9.60653,4.30195495 2.12046,3.280754 2.11175,7.5417617 -0.0214,10.7307987 -0.98748,1.475877 -1.61053,2.069175 -3.13676,2.986872 -1.98164,1.191543 -4.29692,1.643332 -6.64934,1.297511 z M 50.876969,-30.294824 c 1.21766,-0.55119 1.96977,-1.291523 2.5422,-2.502386 0.46878,-0.991632 0.47632,-1.106144 0.47825,-7.281192 l 0.002,-6.273719 -0.56274,-1.07717 c -0.64838,-1.24114 -1.88814,-2.27908 -3.1177,-2.61017 -0.48197,-0.12977 -1.83644,-0.19681 -3.165075,-0.15659 -2.117127,0.064 -2.407922,0.12047 -3.288115,0.63785 -1.107541,0.65102 -2.06358,1.86122 -2.370369,3.00049 -0.132796,0.49365 -0.188961,3.085294 -0.150645,6.970905 0.05807,5.891207 0.08163,6.223419 0.495964,6.991099 0.569358,1.055113 1.36885,1.794841 2.486791,2.300893 1.319397,0.597248 5.329919,0.597248 6.649339,0 z m 43.70231,-0.111139 c 1.29617,-0.645907 2.33246,-1.974 2.65198,-3.398715 0.14802,-0.660179 0.20252,-3.021795 0.15826,-6.850836 -0.0771,-6.653787 -0.099,-6.751177 -1.86091,-8.302047 -1.18141,-1.03993 -2.02862,-1.26938 -4.6781,-1.267 -2.58247,0.002 -3.72702,0.40865 -4.93932,1.75353 -1.23434,1.36931 -1.28368,1.69292 -1.28368,8.420002 0,6.906506 0.0609,7.242881 1.58445,8.738023 1.21382,1.191294 1.98775,1.418128 4.87423,1.42864 2.22898,0.0081 2.5163,-0.03479 3.49321,-0.521597 z"
       id="path34"
       inkscape:connector-curvature="0" />
  </g>
</svg>
