<?xml version="1.0" encoding="UTF-8" standalone="no"?>
<!-- Created with Inkscape (http://www.inkscape.org/) -->

<svg
   xmlns:dc="http://purl.org/dc/elements/1.1/"
   xmlns:cc="http://creativecommons.org/ns#"
   xmlns:rdf="http://www.w3.org/1999/02/22-rdf-syntax-ns#"
   xmlns:svg="http://www.w3.org/2000/svg"
   xmlns="http://www.w3.org/2000/svg"
   xmlns:sodipodi="http://sodipodi.sourceforge.net/DTD/sodipodi-0.dtd"
   xmlns:inkscape="http://www.inkscape.org/namespaces/inkscape"
   width="641.26154"
   height="720"
   viewBox="0 0 169.66711 190.5"
   version="1.1"
   id="svg8"
   inkscape:version="0.92.3 (2405546, 2018-03-11)"
   sodipodi:docname="farmacia.svg">
  <defs
     id="defs2" />
  <sodipodi:namedview
     id="base"
     pagecolor="#ffffff"
     bordercolor="#666666"
     borderopacity="1.0"
     inkscape:pageopacity="0.0"
     inkscape:pageshadow="2"
     inkscape:zoom="0.7"
     inkscape:cx="-174.46233"
     inkscape:cy="317.93323"
     inkscape:document-units="mm"
     inkscape:current-layer="layer1"
     showgrid="false"
     fit-margin-top="0"
     fit-margin-left="0"
     fit-margin-right="0"
     fit-margin-bottom="0"
     units="px"
     inkscape:window-width="1920"
     inkscape:window-height="1017"
     inkscape:window-x="-8"
     inkscape:window-y="-8"
     inkscape:window-maximized="1" />
  <metadata
     id="metadata5">
    <rdf:RDF>
      <cc:Work
         rdf:about="">
        <dc:format>image/svg+xml</dc:format>
        <dc:type
           rdf:resource="http://purl.org/dc/dcmitype/StillImage" />
        <dc:title></dc:title>
      </cc:Work>
    </rdf:RDF>
  </metadata>
  <g
     inkscape:label="Capa 1"
     inkscape:groupmode="layer"
     id="layer1"
     transform="translate(-61.967745,113.06218)">
    <path
       style="fill:#082e3d;stroke-width:0.18864338;fill-opacity:1"
       d="m 172.60701,77.336862 c -0.41502,-0.03699 -1.67426,-0.238938 -2.7983,-0.448622 C 157.77202,74.642812 148.20189,65.585591 145.16,53.560556 L 144.95814,52.762282 115.6776,52.711702 86.397059,52.661122 84.887913,52.23478 C 83.181337,51.752676 80.699308,50.616761 79.368319,49.708713 78.164634,48.887508 76.255975,47.051704 75.244711,45.742507 73.474756,43.451096 72.207917,40.391999 71.792715,37.406806 71.65052,36.384458 71.588557,20.942248 71.588557,-13.471968 v -49.410937 h -4.810406 -4.810406 v -25.089702 -25.089573 h 64.138675 64.13874 v 25.089573 25.089569 h -3.77286 -3.77286 V -41.8493 c 0,11.568554 0.0483,21.033736 0.10739,21.033736 0.059,0 0.75948,-0.396156 1.55631,-0.880347 6.59166,-4.005391 15.28122,-5.386287 22.85981,-3.632752 6.0077,1.390056 10.9585,4.130104 15.29159,8.463171 4.52309,4.523098 7.25867,9.6148808 8.61058,16.02697173 0.44145,2.09381897 0.50214,2.81570957 0.50927,6.05574427 0.007,3.0931825 -0.0599,4.0187702 -0.42017,5.81659 -0.56395,2.815375 -1.51197,5.666914 -2.63282,7.91912 -0.82619,1.660147 -25.28779,42.171612 -27.07408,44.838057 -5.71629,8.532956 -15.81915,13.800941 -26.16509,13.643394 -1.08941,-0.0156 -2.32031,-0.06038 -2.73533,-0.09759 z m 8.2448,-11.249777 c 4.3674,-1.140238 8.58228,-3.951797 11.21907,-7.48378 0.42603,-0.570654 3.21366,-5.064362 6.19473,-9.986022 4.90419,-8.096598 5.3973,-8.985547 5.17989,-9.337847 -0.57536,-0.932348 -2.34493,-3.157988 -3.72826,-4.689092 -7.53709,-8.342334 -18.22934,-13.650745 -29.55175,-14.671668 -1.52411,-0.137427 -2.64305,-0.163005 -2.73933,-0.06263 -0.45281,0.472095 -9.98136,16.422315 -10.61511,17.769023 -2.00433,4.259222 -2.36659,9.524255 -0.98363,14.296518 2.14619,7.406065 8.41634,13.054872 16.11016,14.513657 2.24545,0.42574 6.60162,0.255605 8.91423,-0.348159 z M 144.44562,42.474292 c 0.61434,-4.028453 1.41369,-6.750176 2.88089,-9.809457 0.54737,-1.141291 3.11228,-5.555546 5.69985,-9.809456 l 4.70464,-7.734378 -24.5842,-0.04786 -24.58421,-0.04786 v -33.954575 -33.954572 l 32.39951,-0.0477 32.39949,-0.0477 0.0503,-4.951889 0.0504,-4.951888 H 127.24003 81.01788 l 0.04855,50.047461 0.04855,50.047461 0.701371,1.419101 c 1.181824,2.391233 3.632629,4.264219 6.130358,4.685023 0.496458,0.08364 13.379441,0.140703 28.628851,0.126778 l 27.72621,-0.02529 z m 69.58832,-19.854716 c 4.79098,-7.894467 5.24833,-8.738864 6.00305,-11.0828 0.77519,-2.4074775 1.0281,-4.4348152 0.90379,-7.2445514 -0.23479,-5.307451 -2.2319,-9.8444772 -5.98564,-13.5982183 -2.64176,-2.6417703 -5.6745,-4.3980593 -9.36,-5.4204433 -1.6989,-0.471297 -2.15113,-0.51687 -5.16324,-0.520341 -2.87827,-0.0033 -3.51879,0.05352 -4.99904,0.44354 -2.1846,0.575615 -4.54787,1.598086 -6.26647,2.711217 -1.53405,0.993597 -3.9864,3.259771 -5.11763,4.7291373 -0.41436,0.5381973 -2.919,4.5438998 -5.56586,8.9015619 l -4.81252,7.9230218 0.69451,0.1365362 c 3.94828,0.7761758 5.75018,1.1713198 7.15191,1.5683658 9.91621,2.808801 19.63503,8.871846 26.32183,16.420715 0.95727,1.080702 1.79621,1.964912 1.8643,1.964912 0.0682,0 2.01702,-3.11969 4.33101,-6.932644 z M 168.0324,-1.8364623 172.51269,-9.2527717 V -26.447725 -43.642682 l -27.30612,0.04779 -27.30613,0.04779 -0.0479,24.570801 -0.0479,24.5707994 22.87372,-0.00735 22.87371,-0.00735 z M 86.679958,-87.976769 v -15.653241 h -7.640057 -7.640057 l -6.5e-5,15.704562 -6.2e-5,15.704563 7.640119,-0.05131 7.640122,-0.05133 z m 67.488242,0.05131 0.0481,-15.704561 h -12.2629 -12.2629 v 15.625959 c 0,8.59428 0.0572,15.683175 0.12714,15.753099 0.0699,0.06992 5.56652,0.105299 12.21466,0.07861 l 12.08752,-0.04853 z m -33.72108,-0.04717 V -103.63003 H 108.1853 95.923482 v 15.657405 15.657401 h 12.261818 12.26182 z m 60.36587,0 v -15.657401 h -8.6776 -8.67758 v 15.657401 15.657401 h 8.67758 8.6776 z"
       id="path60"
       inkscape:connector-curvature="0" />
  </g>
</svg>
