<?xml version="1.0" encoding="UTF-8" standalone="no"?>
<!-- Created with Inkscape (http://www.inkscape.org/) -->

<svg
   xmlns:dc="http://purl.org/dc/elements/1.1/"
   xmlns:cc="http://creativecommons.org/ns#"
   xmlns:rdf="http://www.w3.org/1999/02/22-rdf-syntax-ns#"
   xmlns:svg="http://www.w3.org/2000/svg"
   xmlns="http://www.w3.org/2000/svg"
   xmlns:sodipodi="http://sodipodi.sourceforge.net/DTD/sodipodi-0.dtd"
   xmlns:inkscape="http://www.inkscape.org/namespaces/inkscape"
   width="720"
   height="440.74289"
   viewBox="0 0 190.5 116.61322"
   version="1.1"
   id="svg8"
   inkscape:version="0.92.3 (2405546, 2018-03-11)"
   sodipodi:docname="consultorios.svg">
  <defs
     id="defs2" />
  <sodipodi:namedview
     id="base"
     pagecolor="#ffffff"
     bordercolor="#666666"
     borderopacity="1.0"
     inkscape:pageopacity="0.0"
     inkscape:pageshadow="2"
     inkscape:zoom="0.7"
     inkscape:cx="14.394931"
     inkscape:cy="155.32667"
     inkscape:document-units="mm"
     inkscape:current-layer="layer1"
     showgrid="false"
     fit-margin-top="0"
     fit-margin-left="0"
     fit-margin-right="0"
     fit-margin-bottom="0"
     units="px"
     inkscape:window-width="1920"
     inkscape:window-height="1017"
     inkscape:window-x="-8"
     inkscape:window-y="-8"
     inkscape:window-maximized="1" />
  <metadata
     id="metadata5">
    <rdf:RDF>
      <cc:Work
         rdf:about="">
        <dc:format>image/svg+xml</dc:format>
        <dc:type
           rdf:resource="http://purl.org/dc/dcmitype/StillImage" />
        <dc:title></dc:title>
      </cc:Work>
    </rdf:RDF>
  </metadata>
  <g
     inkscape:label="Capa 1"
     inkscape:groupmode="layer"
     id="layer1"
     transform="translate(-11.999259,21.722193)">
    <path
       style="fill:#082e3d;stroke-width:0.21174204;fill-opacity:1"
       d="m 101.89822,94.764809 c -1.17112,-0.12577 -1.54948,-0.265155 -2.067862,-0.761794 -1.51779,-1.454148 -1.15979,-3.719009 0.743462,-4.703214 0.91373,-0.472504 7.52586,-0.211926 8.47227,0.333894 1.57236,0.9068 1.79276,3.108154 0.44616,4.455818 l -0.76707,0.767666 -2.69677,0.03079 c -1.48325,0.017 -3.34181,-0.03849 -4.13019,-0.123144 z m 16.02566,-0.308165 c -1.48633,-0.661498 -2.07109,-2.272404 -1.38662,-3.81977 0.63592,-1.437634 1.1956,-1.631373 5.44826,-1.886034 3.41454,-0.204473 3.65983,-0.193569 4.31679,0.192119 1.83995,1.080194 1.8952,3.704729 0.10278,4.879227 -0.52303,0.342717 -2.05565,0.550093 -5.92225,0.801332 -1.38597,0.09006 -2.08382,0.04454 -2.55886,-0.166884 z M 86.392248,93.49803 c -2.9437,-0.390166 -3.30713,-0.51262 -4.12897,-1.391115 -0.43991,-0.470247 -0.52934,-0.775281 -0.52934,-1.805345 0,-1.083388 0.0785,-1.321411 0.62317,-1.88996 0.34278,-0.357758 0.91448,-0.729913 1.27046,-0.827007 0.82967,-0.226281 6.9532,0.484892 7.90088,0.917594 1.92891,0.880711 2.04841,3.860199 0.20007,4.98723 -0.81889,0.499303 -1.62422,0.500601 -5.33622,0.0085 z m 48.446272,-1.067315 c -1.79386,-1.093792 -1.74299,-4.014081 0.0863,-4.948604 0.32542,-0.166234 2.17057,-0.570768 4.10034,-0.898932 l 3.50867,-0.596668 0.72546,0.423681 c 1.12995,0.65994 1.73692,1.702143 1.6189,2.779832 -0.11979,1.094167 -0.58751,1.848073 -1.41048,2.273639 -0.64653,0.334332 -6.19483,1.382553 -7.31065,1.381175 -0.35232,-4.24e-4 -0.94563,-0.186792 -1.31847,-0.414123 z M 69.565478,90.600131 c -1.80138,-0.40191 -3.49136,-0.872333 -3.75546,-1.045382 -1.16186,-0.761279 -1.60187,-2.325033 -1.00698,-3.578689 0.73606,-1.551107 1.84681,-1.890798 4.4381,-1.357273 4.73522,0.974932 5.02009,1.062363 5.80472,1.781421 0.70985,0.650532 0.7593,0.77873 0.7593,1.968664 0,1.120279 -0.0748,1.350776 -0.6232,1.923289 -0.50861,0.530882 -1.76123,1.121412 -2.23532,1.053818 -0.0583,-0.0083 -1.57974,-0.343932 -3.38116,-0.745848 z m 82.374012,-1.741027 c -0.81515,-0.437161 -1.49526,-1.538886 -1.49526,-2.42217 0,-0.86496 0.52406,-1.978392 1.11274,-2.364102 0.28208,-0.18484 2.05388,-0.776476 3.9373,-1.31477 l 3.42445,-0.978713 0.96837,0.369816 c 1.18477,0.452474 1.77756,1.324854 1.77868,2.617597 8e-4,1.065064 -0.45669,1.953958 -1.24544,2.419281 -0.73221,0.431979 -6.38865,2.059971 -7.15732,2.059971 -0.33117,0 -0.92673,-0.174112 -1.32352,-0.38691 z M 52.460568,86.088355 c -1.77601,-0.556388 -3.43282,-1.193112 -3.68178,-1.414946 -1.67092,-1.488805 -1.00899,-4.320533 1.14923,-4.916451 0.85488,-0.236034 1.21994,-0.161932 5.02054,1.019248 3.01157,0.935951 3.35127,1.133944 3.83961,2.237955 0.69485,1.570809 0.089,3.186391 -1.43333,3.822478 -1.00548,0.420124 -1.31645,0.37258 -4.89427,-0.748284 z M 168.51303,83.515494 c -1.78761,-0.88487 -2.09036,-3.366298 -0.56882,-4.662317 0.39872,-0.339619 5.85508,-2.595339 6.88447,-2.846108 0.82557,-0.201122 2.39728,0.555447 2.80935,1.352318 0.422,0.816053 0.42693,2.19699 0.01,3.001899 -0.17707,0.34245 -0.68933,0.810043 -1.13833,1.039103 -1.47468,0.752327 -6.1592,2.552078 -6.6423,2.551905 -0.26011,-8.9e-5 -0.86991,-0.196644 -1.35505,-0.4368 z M 36.209388,80.241286 c -1.51394,-0.632798 -2.98257,-1.271525 -3.26361,-1.419395 -0.79004,-0.415691 -1.28716,-1.407564 -1.28804,-2.569988 -7.9e-4,-0.915428 0.091,-1.122614 0.82127,-1.852744 1.18945,-1.189459 1.96545,-1.139591 5.66001,0.363724 3.44968,1.403677 3.75344,1.585615 4.19265,2.511169 0.96004,2.023115 -0.36458,4.154627 -2.56507,4.12764 -0.47644,-0.0058 -1.92718,-0.479096 -3.55721,-1.160406 z M 184.39369,76.528007 c -1.51437,-0.74961 -2.01269,-2.625998 -1.07058,-4.031238 0.72848,-1.086589 6.01749,-3.857954 7.40438,-3.879784 0.55283,-0.0088 1.00541,-0.03094 1.00579,-0.04942 0.002,-0.09188 -7.47852,-13.963529 -7.60341,-14.099915 -0.0798,-0.08721 -0.75987,0.174087 -1.51119,0.580614 -2.57041,1.390886 -3.71635,1.411233 -4.98362,0.08848 -0.53812,-0.561688 -0.6172,-0.803053 -0.6172,-1.883726 0,-1.543692 0.37516,-1.99489 2.67981,-3.222855 l 1.6349,-0.871118 -1.09864,-2.038919 c -0.60426,-1.121407 -2.94842,-5.479666 -5.20925,-9.685028 l -4.11059,-7.646109 -1.94167,1.037463 c -1.5478,0.827011 -2.14719,1.037463 -2.95475,1.037463 -0.89447,0 -1.10929,-0.09623 -1.83513,-0.822055 -0.73013,-0.730128 -0.82196,-0.937315 -0.82126,-1.852742 0.001,-1.549024 0.48117,-2.141381 2.71676,-3.35284 1.06743,-0.578437 1.94077,-1.136729 1.94077,-1.240649 0,-0.103913 -2.11155,-4.118957 -4.69234,-8.922303 l -4.69235,-8.7333488 -2.65605,1.270532 c -1.46084,0.698791 -3.04153,1.312688 -3.51265,1.36421 -1.6232,0.177512 -3.21007,-1.491848 -3.00659,-3.162866 0.16781,-1.378397 0.74101,-1.88995 3.61606,-3.227295 1.46457,-0.681262 2.6629,-1.330132 2.6629,-1.441931 0,-0.482169 -5.81252,-10.956666 -6.08009,-10.956666 -0.16131,0 -0.55052,0.132646 -0.86499,0.294791 -1.32079,0.680955 -8.42359,3.197857 -11.98033,4.245266 -10.42752,3.070746 -18.61666,4.247237 -29.56353,4.247237 -10.946872,0 -19.136012,-1.176491 -29.563522,-4.247237 -3.55675,-1.047409 -10.65957,-3.564311 -11.98034,-4.245266 -0.31447,-0.162132 -0.70425,-0.294791 -0.86619,-0.294791 -0.22658,0 -4.20727,7.114185 -6.48798,11.595436 -0.20783,0.408403 -0.15881,0.59027 0.33224,1.234157 1.57229,2.061398 -0.0573,4.977305 -2.6027,4.657429 l -0.87974,-0.110538 -4.96587,9.2569008 c -2.73124,5.091295 -5.03074,9.610505 -5.11002,10.042694 -0.0803,0.437409 -0.41352,1.055179 -0.75174,1.393407 -0.52676,0.526743 -11.13761,19.915407 -10.97645,20.056636 0.033,0.02901 0.67956,0.359976 1.43653,0.735465 1.71741,0.8519 2.48926,1.565469 2.75308,2.545205 0.47905,1.779049 -0.90587,3.598024 -2.73945,3.598024 -0.35345,0 -1.45037,-0.400595 -2.43759,-0.890212 -0.98723,-0.489617 -1.83293,-0.846932 -1.87932,-0.794033 -0.0465,0.05289 -1.71273,3.138808 -3.70299,6.857574 l -3.61867,6.761397 1.43836,0.82912 c 1.6571,0.955208 2.14039,1.62883 2.14039,2.983302 0,0.777447 -0.12754,1.111091 -0.65458,1.711249 -1.1897,1.354995 -2.5914,1.39614 -4.71908,0.138525 l -1.03292,-0.610543 -0.92358,0.650992 c -0.71755,0.505783 -1.20905,0.671639 -2.20343,0.743565 -1.6802,0.121543 -2.88588,-0.34388 -3.98787,-1.539383 -0.98673,-1.070479 -1.39772,-2.323667 -1.22951,-3.74888 0.0935,-0.791389 4.89089,-9.878372 24.09055,-45.630412 13.18564,-24.5532308 24.07724,-44.749506 24.20359,-44.880615 0.16881,-0.175287 1.04232,0.144703 3.29995,1.208987 10.07934,4.751549 19.12968,7.651176 28.69104,9.192281 5.96642,0.961676 7.34396,1.059439 14.927812,1.059439 7.58385,0 8.96139,-0.09776 14.92782,-1.059439 9.55907,-1.540743 18.59434,-4.435176 28.69103,-9.191136 1.68865,-0.795424 3.14497,-1.379095 3.23628,-1.297056 0.29163,0.262012 47.82528,88.799508 48.13314,89.654133 0.81198,2.253907 -0.3234,4.857727 -2.56287,5.877665 -1.78015,0.810748 -4.29713,0.310055 -5.47434,-1.089003 l -0.50831,-0.604083 -0.50383,0.779385 c -0.41245,0.638072 -1.08849,1.076919 -3.7286,2.420387 -1.77363,0.902549 -3.44048,1.640927 -3.7041,1.640832 -0.26359,-9.1e-5 -0.87623,-0.196646 -1.36138,-0.436801 z M 98.673298,73.122992 c -1.51397,-0.09388 -3.05952,-0.22448 -3.43458,-0.290203 -1.61044,-0.282224 -2.68995,-2.072276 -2.21193,-3.667799 0.2855,-0.952881 0.78993,-1.462015 1.78876,-1.805397 0.87354,-0.30031 7.402412,0.07443 8.135902,0.466986 1.25684,0.672649 1.7697,2.322432 1.15436,3.713494 -0.70531,1.594458 -1.50216,1.826646 -5.432512,1.582919 z m 13.038492,-0.127971 c -1.37879,-0.767603 -1.86011,-2.453806 -1.10404,-3.867802 0.70127,-1.311584 1.23079,-1.471486 5.36821,-1.621129 3.31911,-0.120043 3.76304,-0.09501 4.33809,0.244687 1.3384,0.790606 1.78239,2.573253 0.98568,3.957511 -0.6803,1.182004 -1.44322,1.40294 -5.36946,1.554941 -3.19066,0.123519 -3.55662,0.100261 -4.21848,-0.268218 z m 17.19797,-1.526766 c -1.73819,-1.059832 -1.75095,-3.958481 -0.0225,-4.907547 0.7799,-0.42802 7.16527,-1.413911 7.87175,-1.215388 1.99028,0.55928 2.82646,2.656964 1.72761,4.334004 -0.58125,0.887105 -1.27197,1.152467 -4.37723,1.681641 -3.67979,0.62708 -4.32619,0.640415 -5.20053,0.107288 z m -48.543002,-0.56229 c -3.06157,-0.551924 -3.61359,-0.790706 -4.25329,-1.839885 -0.86016,-1.410682 -0.25259,-3.250244 1.32982,-4.026326 0.7718,-0.37853 0.8441,-0.375313 4.12617,0.183641 1.83733,0.312911 3.64877,0.71082 4.02543,0.884242 1.92891,0.888124 2.05021,3.811919 0.20482,4.937123 -0.87308,0.532344 -1.84818,0.50743 -5.43293,-0.1388 z M 146.0107,68.108384 c -1.90693,-1.022692 -1.95225,-4.016497 -0.0753,-4.977174 0.32542,-0.16656 2.05544,-0.704108 3.8445,-1.19455 l 3.25283,-0.891713 0.94699,0.361659 c 1.16516,0.444976 1.75622,1.325224 1.75732,2.617111 8e-4,1.098694 -0.59026,2.169575 -1.4019,2.539387 -0.9162,0.417444 -6.44039,1.93219 -7.04661,1.93219 -0.30598,0 -0.88099,-0.174112 -1.27778,-0.38691 z M 63.524108,67.034952 c -1.51394,-0.438291 -2.94427,-0.899533 -3.17848,-1.024985 -1.6873,-0.903744 -1.96823,-3.227256 -0.554,-4.582161 1.00111,-0.959119 1.87662,-0.94767 5.46595,0.07147 3.46826,0.984781 3.92079,1.203971 4.52226,2.190375 1.14651,1.880362 -0.2693,4.187388 -2.55023,4.155494 -0.52407,-0.0073 -2.19154,-0.371922 -3.7055,-0.810208 z m 43.089522,-2.7038 C 99.156718,63.156709 93.434478,59.088873 90.222638,52.679111 c -1.02479,-2.045125 -1.58709,-3.842255 -1.98286,-6.337223 l -0.34404,-2.168821 -1.06936,-0.143428 c -1.47988,-0.198469 -2.3084,-0.578644 -2.81135,-1.289992 -0.69072,-0.976953 -0.77963,-1.83162 -0.30263,-2.909927 0.63912,-1.444831 1.74174,-1.885646 3.8606,-1.543402 l 0.96896,0.156506 0.36981,-1.330126 c 0.53659,-1.930027 1.94239,-4.679093 3.34387,-6.538978 2.86104,-3.796898 6.4606,-6.256841 11.333432,-7.745318 1.69801,-0.518673 2.17343,-0.568992 5.4596,-0.577807 3.11343,-0.0083 3.84269,0.05615 5.39942,0.477551 3.51843,0.952442 6.63371,2.698658 9.26307,5.192234 2.89201,2.742663 4.9711,6.224301 6.02177,10.084046 0.4208,1.545873 0.48932,2.292731 0.48557,5.293548 -0.002,2.978499 -0.0765,3.759173 -0.49285,5.293553 -1.04522,3.850955 -2.8687,6.921899 -5.84638,9.846004 -3.08732,3.031762 -6.85686,4.985253 -11.02095,5.711409 -1.68982,0.294679 -4.93023,0.389223 -6.24469,0.182189 z m 5.71703,-9.952253 c 3.66178,-1.00501 6.82343,-4.126424 7.94308,-7.841976 2.01154,-6.675241 -2.64715,-13.785886 -9.63701,-14.709166 -5.19342,-0.685993 -10.40538,2.457294 -12.301452,7.418909 -0.57698,1.509855 -0.78611,4.846328 -0.41112,6.559097 0.58015,2.649683 2.499832,5.457164 4.825672,7.057382 2.65744,1.828368 6.32675,2.408874 9.58083,1.515754 z m 50.19592,8.435933 c -1.91753,-1.028376 -1.95142,-4.010145 -0.0568,-4.989926 1.43944,-0.744375 6.13281,-2.501663 6.72969,-2.519737 2.17275,-0.0658 3.58176,2.252942 2.56444,4.220195 -0.18456,0.357007 -0.55492,0.789468 -0.82289,0.961029 -0.88309,0.565337 -6.51147,2.71535 -7.10833,2.71535 -0.32162,0 -0.9094,-0.174112 -1.30619,-0.386911 z M 48.913908,62.167717 c -3.19169,-1.144365 -5.08209,-1.963724 -5.56178,-2.410648 -1.15809,-1.078982 -1.08241,-3.203998 0.15105,-4.241903 1.17055,-0.984943 1.75938,-0.931461 5.45189,0.495146 1.84068,0.711161 3.5627,1.49487 3.82669,1.741575 1.19368,1.115512 1.08081,3.277902 -0.22208,4.256521 -1.08086,0.811819 -1.74489,0.840834 -3.64572,0.159306 z M 132.34028,43.327514 c -0.97289,-0.600945 -1.40165,-1.188381 -1.52194,-2.085147 -0.13755,-1.02599 0.34538,-2.234609 1.08726,-2.720699 0.63938,-0.418944 6.39866,-1.788065 7.5166,-1.78689 2.09412,0.0021 3.43753,2.38589 2.34992,4.169608 -0.63158,1.03582 -1.17337,1.281536 -4.58183,2.07799 -3.64188,0.851006 -3.99085,0.87584 -4.85001,0.345138 z M 71.282348,40.522793 c -1.67235,-0.464857 -3.27324,-0.997593 -3.55752,-1.183862 -0.73174,-0.479457 -1.13045,-1.365956 -1.13045,-2.513467 0,-0.865664 0.10203,-1.09025 0.82207,-1.810325 0.7164,-0.716407 0.94711,-0.822055 1.79511,-0.822055 0.96307,0 6.40963,1.4106 7.3127,1.893901 1.75515,0.939332 1.64944,4.036626 -0.16981,4.977434 -0.92703,0.47938 -1.69333,0.397553 -5.07205,-0.541626 z m 77.750432,-1.886137 c -1.79054,-0.907569 -2.08605,-3.34204 -0.56886,-4.686189 0.66799,-0.591783 6.49897,-2.721774 7.45103,-2.721774 1.59567,0 2.97026,1.78453 2.64134,3.429087 -0.24409,1.220705 -1.22996,1.918491 -4.40469,3.117741 -3.63427,1.372836 -3.99092,1.432836 -5.11882,0.861135 z M 57.701208,36.179592 c -6.46145,-2.378014 -6.96755,-2.654533 -7.43144,-4.060134 -0.52254,-1.583264 0.68777,-3.39729 2.38647,-3.576924 0.73962,-0.0782 1.46645,0.11434 3.77452,0.999938 3.64322,1.397894 3.95536,1.564973 4.45516,2.384665 1.0512,1.724049 -0.10704,4.022926 -2.15654,4.280162 -0.39079,0.04904 -0.85348,0.03659 -1.02817,-0.02771 z M 102.36451,18.328575 c -1.91703,-0.135797 -2.670922,-0.451911 -3.274472,-1.373023 -0.84937,-1.296324 -0.45888,-3.153109 0.83676,-3.978807 0.603882,-0.384847 0.930952,-0.407477 4.417422,-0.305665 3.32931,0.09723 3.84779,0.160956 4.47817,0.550555 1.36348,0.84268 1.72181,2.861564 0.73136,4.120703 -0.94296,1.198798 -2.04818,1.350412 -7.18924,0.986237 z m 14.94209,-0.648729 c -1.29678,-0.853424 -1.7116,-2.454333 -0.98637,-3.806611 0.60291,-1.124217 1.43761,-1.413184 5.2609,-1.821286 3.75568,-0.400886 4.21877,-0.339791 5.18002,0.683401 0.41354,0.440203 0.49732,0.754628 0.49732,1.866421 0,2.238502 -0.68282,2.690921 -4.7809,3.167748 -3.69677,0.430133 -4.39967,0.417943 -5.17097,-0.08968 z M 86.392248,16.501413 c -1.51394,-0.275495 -3.06297,-0.646472 -3.44225,-0.824399 -2.18345,-1.024276 -1.92816,-4.24628 0.41327,-5.216131 0.52762,-0.218554 1.16834,-0.16646 4.05114,0.32939 3.80523,0.654492 4.42055,0.883452 5.02107,1.868337 1.15263,1.890371 -0.32502,4.422714 -2.54619,4.363532 -0.40941,-0.01101 -1.98307,-0.245237 -3.49704,-0.520729 z m 48.488942,-1.452277 c -0.34938,-0.155281 -0.87344,-0.540364 -1.16459,-0.855739 -0.44003,-0.476666 -0.52934,-0.784193 -0.52934,-1.822733 0,-1.953168 0.4919,-2.324862 4.6246,-3.4944048 3.68881,-1.043924 3.86965,-1.067306 4.90594,-0.63432 2.0141,0.841541 2.09802,4.0632558 0.1323,5.0797538 -0.71146,0.367908 -6.4728,2.030677 -6.99239,2.018059 -0.18782,-0.0045 -0.62717,-0.135324 -0.97655,-0.290616 z M 69.037268,12.502807 c -2.77371,-0.798981 -3.23933,-0.997757 -3.7389,-1.59616 -0.80354,-0.9625058 -0.93541,-1.9096958 -0.42618,-3.0609138 0.47502,-1.07384 1.29619,-1.6026 2.48881,-1.6026 0.95156,0 6.69928,1.581433 7.38813,2.032773 0.59016,0.386691 1.16189,1.522365 1.16189,2.3079368 0,1.522044 -1.36606,2.869906 -2.8835,2.845061 -0.45209,-0.0075 -2.2477,-0.424145 -3.99025,-0.926097 z"
       id="path47"
       inkscape:connector-curvature="0" />
  </g>
</svg>
