<?xml version="1.0" encoding="UTF-8" standalone="no"?>
<!-- Created with Inkscape (http://www.inkscape.org/) -->

<svg
   xmlns:dc="http://purl.org/dc/elements/1.1/"
   xmlns:cc="http://creativecommons.org/ns#"
   xmlns:rdf="http://www.w3.org/1999/02/22-rdf-syntax-ns#"
   xmlns:svg="http://www.w3.org/2000/svg"
   xmlns="http://www.w3.org/2000/svg"
   xmlns:sodipodi="http://sodipodi.sourceforge.net/DTD/sodipodi-0.dtd"
   xmlns:inkscape="http://www.inkscape.org/namespaces/inkscape"
   width="720"
   height="703.30371"
   viewBox="0 0 190.5 186.08244"
   version="1.1"
   id="svg8"
   inkscape:version="0.92.3 (2405546, 2018-03-11)"
   sodipodi:docname="servicio-a-domicilio.svg">
  <defs
     id="defs2" />
  <sodipodi:namedview
     id="base"
     pagecolor="#ffffff"
     bordercolor="#666666"
     borderopacity="1.0"
     inkscape:pageopacity="0.0"
     inkscape:pageshadow="2"
     inkscape:zoom="0.7"
     inkscape:cx="-159.12528"
     inkscape:cy="312.41072"
     inkscape:document-units="mm"
     inkscape:current-layer="layer1"
     showgrid="false"
     fit-margin-top="0"
     fit-margin-left="0"
     fit-margin-right="0"
     fit-margin-bottom="0"
     units="px"
     inkscape:window-width="1920"
     inkscape:window-height="1017"
     inkscape:window-x="-8"
     inkscape:window-y="-8"
     inkscape:window-maximized="1" />
  <metadata
     id="metadata5">
    <rdf:RDF>
      <cc:Work
         rdf:about="">
        <dc:format>image/svg+xml</dc:format>
        <dc:type
           rdf:resource="http://purl.org/dc/dcmitype/StillImage" />
        <dc:title></dc:title>
      </cc:Work>
    </rdf:RDF>
  </metadata>
  <g
     inkscape:label="Capa 1"
     inkscape:groupmode="layer"
     id="layer1"
     transform="translate(-160.71934,306.65342)">
    <path
       style="fill:#082e3d;stroke-width:0.21184097;fill-opacity:1"
       d="m 252.43303,-120.85721 c -2.13087,-0.38709 -3.79384,-0.89854 -5.49717,-1.69062 -1.66009,-0.77196 -53.02731,-30.37306 -55.18458,-31.80091 -3.86729,-2.55963 -6.85832,-6.47553 -8.40457,-11.00328 -1.04108,-3.04851 -1.12828,-4.25165 -1.12828,-15.56574 v -10.53196 l -7.85646,-4.42802 c -6.66772,-3.75804 -8.09512,-4.64853 -9.43362,-5.88514 -2.90424,-2.68319 -4.20901,-5.71198 -4.20901,-9.77049 0,-2.73203 0.45938,-4.48945 1.73813,-6.64925 0.52343,-0.8841 4.65686,-5.57749 11.92284,-13.53809 6.1169,-6.70164 11.43213,-12.64373 11.81159,-13.20462 1.01859,-1.50556 3.10095,-3.65823 4.61215,-4.76782 0.73085,-0.53662 11.26354,-6.70779 23.40596,-13.71371 l 22.07714,-12.73801 1.76843,-5.19009 c 1.05907,-3.10828 2.28433,-6.2314 3.05459,-7.78611 4.30409,-8.68727 12.52705,-14.90109 22.54743,-17.03834 2.90959,-0.62059 8.80294,-0.66418 11.77086,-0.0871 4.33366,0.84272 8.5709,2.57345 12.28678,5.01858 2.57014,1.69122 6.62343,5.71846 8.40154,8.34755 5.84591,8.64366 7.24804,18.82594 3.96256,28.77615 -0.30155,0.91328 -0.46616,1.735 -0.36578,1.82605 0.10034,0.0911 4.6153,2.71734 10.03314,5.83618 5.41783,3.11884 10.2722,5.95933 10.78747,6.3122 1.43613,0.98346 3.86603,3.37665 4.90671,4.8326 0.51443,0.71969 5.46343,6.27686 10.99778,12.34923 5.53435,6.07238 10.61764,11.6589 11.29622,12.41447 3.77103,4.19898 4.53821,9.90292 2.02254,15.03752 -0.69067,1.40969 -1.23194,2.14362 -2.49295,3.38024 -1.48685,1.4581 -2.22163,1.9224 -9.55476,6.03746 l -7.94404,4.4579 -0.11435,11.54532 c -0.10959,11.08197 -0.1331,11.61051 -0.5807,13.16884 -1.51007,5.25622 -4.59686,9.67063 -8.6923,12.43085 -1.35366,0.91233 -53.08939,30.78641 -54.90646,31.70497 -3.77851,1.91012 -8.91043,2.66309 -13.0389,1.91312 z m 6.36592,-9.26843 c 0.58255,-0.1271 1.46888,-0.40573 1.96959,-0.61931 0.50071,-0.21367 12.94108,-7.32462 27.64525,-15.80232 26.05912,-15.02439 26.77626,-15.45477 28.37327,-17.02739 1.24465,-1.22563 1.8179,-1.99134 2.38514,-3.18575 1.28408,-2.7039 1.39077,-3.67895 1.32809,-12.13723 l -0.0555,-7.50961 -16.41769,9.23212 c -9.02973,5.07766 -17.10009,9.5037 -17.93415,9.83567 -3.64533,1.45087 -8.11376,1.07569 -11.64298,-0.9776 -2.50296,-1.4562 -3.47599,-2.78027 -12.03,-16.37007 -6.95458,-11.04874 -8.06474,-12.70826 -8.28707,-12.3876 -0.14112,0.20367 -3.65529,5.75629 -7.8091,12.33926 -6.74931,10.69627 -7.71931,12.13125 -9.12211,13.49475 -2.60269,2.52981 -5.53558,3.7291 -9.11958,3.7291 -2.20216,0 -4.0727,-0.42821 -5.87799,-1.34559 -0.68766,-0.34943 -7.70168,-4.28943 -15.5867,-8.7555 -7.88504,-4.4661 -14.5588,-8.23698 -14.8306,-8.37975 l -0.49418,-0.25959 0.0753,8.11976 0.0753,8.11976 0.56269,1.55378 c 0.79998,2.20909 1.7617,3.69481 3.36139,5.19284 1.19786,1.12175 5.14584,3.46766 28.33674,16.83778 14.81975,8.54393 27.49178,15.72712 28.16005,15.96264 2.08079,0.73328 4.57091,0.85533 6.93478,0.33985 z m 24.1549,-45.89721 c 1.1016,-0.50042 56.31371,-31.46492 57.31354,-32.14303 1.7335,-1.17572 2.26153,-3.83638 1.09657,-5.52524 -0.71616,-1.03823 -19.55144,-21.67437 -19.7829,-21.67437 -0.0913,0 -13.15848,6.25896 -29.03797,13.90875 -15.87949,7.64979 -29.6821,14.22278 -30.67244,14.60664 -1.03603,0.40156 -1.79042,0.81477 -1.77656,0.97311 0.0458,0.52273 18.10945,28.87496 18.66581,29.29738 1.29534,0.98348 2.81151,1.18477 4.19395,0.55676 z m -52.61682,-1.42217 c 0.70292,-0.50282 2.49097,-3.19381 9.63,-14.49305 4.82171,-7.63158 8.76739,-13.92409 8.76811,-13.98336 6.5e-4,-0.0593 -0.6658,-0.31801 -1.48122,-0.57492 -0.83363,-0.26267 -13.56001,-6.63159 -29.07517,-14.55068 -15.17594,-7.74597 -27.7015,-14.11259 -27.83461,-14.14804 -0.31285,-0.0833 -19.67356,21.10935 -20.09403,21.99542 -0.6708,1.41362 -0.23394,3.78737 0.87709,4.7669 0.42183,0.37186 53.84269,30.68808 55.26008,31.35996 1.22798,0.5821 2.8262,0.43148 3.94975,-0.37223 z m 26.7366,-37.49048 c 1.01799,-0.25841 19.04807,-8.68202 19.66673,-9.18823 0.0808,-0.0661 1.28954,-3.48345 2.68624,-7.5942 l 2.53946,-7.4741 -1.08897,-1.31729 c -9.40434,-11.37616 -25.14369,-17.07177 -39.87279,-14.4288 -1.04861,0.18816 -2.02376,0.45215 -2.167,0.58661 -0.49629,0.46594 -6.61565,19.18194 -6.96951,21.31629 -0.36033,2.17314 -0.3018,5.79179 0.1251,7.73219 l 0.23294,1.0592 2.16488,1.11434 c 9.74119,5.01407 15.69199,7.93798 16.67602,8.19374 1.56211,0.40599 4.40816,0.40611 6.00687,2e-4 z m -34.54721,-16.88164 c 0.0666,-1.31075 0.32565,-3.31883 0.57558,-4.46235 0.24995,-1.14351 2.30842,-7.56865 4.57441,-14.27802 2.26597,-6.7094 4.09452,-12.22118 4.06342,-12.24838 -0.0788,-0.0691 -34.65289,19.9016 -34.92381,20.17252 -0.15213,0.15213 3.69036,2.21936 12.45129,6.69874 6.96921,3.56331 12.77629,6.48369 12.90462,6.48972 0.14988,0.007 0.27666,-0.84115 0.35449,-2.37223 z m 79.27611,-4.34275 c 7.19633,-3.46623 13.08109,-6.39008 13.07724,-6.49742 -0.005,-0.17389 -17.97231,-10.69192 -18.29093,-10.70809 -0.0713,-0.002 -1.87321,5.165 -4.00427,11.4858 -2.13103,6.32083 -3.91797,11.61156 -3.97096,11.75718 -0.053,0.14562 -0.051,0.26482 0.005,0.26482 0.0553,0 5.98843,-2.83604 13.18475,-6.30229 z M 288.7858,-259.451 c 3.63674,-10.85236 3.90351,-11.99833 3.73817,-16.05834 -0.43788,-10.75223 -7.78122,-19.33944 -18.4752,-21.60466 -1.96584,-0.41639 -6.35618,-0.41176 -8.57453,0.01 -6.97076,1.32234 -13.08814,5.94867 -16.28488,12.31564 -0.63977,1.27429 -7.13995,20.14305 -6.98925,20.28847 0.0413,0.04 0.98086,-0.0225 2.08772,-0.13987 2.53997,-0.26819 8.76877,-0.0756 11.54535,0.35719 7.8024,1.21583 14.971,3.98333 21.39593,8.26005 2.396,1.59489 5.7124,4.27302 7.1936,5.80911 0.66072,0.68521 0.87484,0.80431 1.0104,0.56206 0.0946,-0.16914 1.60332,-4.57847 3.35269,-9.79866 z"
       id="path105"
       inkscape:connector-curvature="0" />
  </g>
</svg>
